<?xml version="1.0" encoding="utf-8"?>
<!-- Generator: Adobe Illustrator 23.0.1, SVG Export Plug-In . SVG Version: 6.00 Build 0)  -->
<svg version="1.1" id="Layer_1" xmlns="http://www.w3.org/2000/svg" xmlns:xlink="http://www.w3.org/1999/xlink" x="0px" y="0px"
	 viewBox="0 0 100 100" style="enable-background:new 0 0 100 100;" xml:space="preserve">
<path d="M89.8,14.2C89.8,14.2,89.8,14.2,89.8,14.2C89.8,14.2,89.8,14.2,89.8,14.2C89.8,14.2,89.8,14.2,89.8,14.2
	C89.8,14.1,89.8,14.1,89.8,14.2c-0.3-0.3-0.6-0.5-0.9-0.7c0,0,0,0,0,0c0,0,0,0,0,0c0,0,0,0-0.1,0c0,0,0,0-0.1,0
	c-1.5-0.8-3.2-1-4.9-0.5L12.3,37.1c-2.2,0.7-3.8,2.6-4,4.9c-0.3,2.3,0.8,4.5,2.7,5.8l20.2,13l2.2,21.1c0.2,2.1,1.5,3.9,3.4,4.8
	c0,0,0,0,0,0c0,0,0,0,0.1,0c0,0,0,0,0,0c0,0,0,0,0,0c0.8,0.4,1.6,0.5,2.5,0.5c1.3,0,2.5-0.4,3.5-1.2l13.3-9.8l14.8,9.7
	c1,0.7,2.1,1,3.3,1c0.8,0,1.6-0.2,2.4-0.5c1.9-0.8,3.2-2.4,3.5-4.4l11.6-62.4C92.1,17.7,91.4,15.6,89.8,14.2z M43.5,65.4
	C43.5,65.4,43.4,65.5,43.5,65.4c-0.1,0.1-0.1,0.2-0.1,0.2c0,0,0,0,0,0c0,0,0,0,0,0.1c0,0.1-0.1,0.1-0.1,0.2c0,0,0,0.1,0,0.1l0,0
	c0,0,0,0,0,0l-6,14.6l-2.1-20l40.3-32.7L43.5,65.4z M12.2,42.6c0.1-0.8,0.6-1.4,1.3-1.6l67.6-22.8L32.9,57.2L13.1,44.5
	C12.4,44.1,12.1,43.4,12.2,42.6z M40.6,82.9l5.4-13.2l6.6,4.3L40.6,82.9z M76.1,81.4c-0.1,0.7-0.6,1.2-1.2,1.5
	c-0.6,0.3-1.3,0.2-1.9-0.2L48,66.3l39.7-46.6L76.1,81.4z"/>
</svg>
